# xmcd
#
# Track frame offsets:
#	150
#	22582
#	44944
#	61645
#	82561
#	102910
#	116740
#	128109
#	151299
#	167264
#	191120
#	204633
#	231207
#	249401
#
# Disc length: 3494 seconds
# Revision: 0
# Processed by: cddbd v1.5.2PL0 Copyright (c) Steve Scherf et al.
# Submitted via: dBpowerAMP V12.0
#
DISCID=a90da40e
DTITLE=Fred Hargrove - Watching Eagles Fly
DYEAR=2011
DGENRE=Country
TTITLE0=Watching Eagles Fly
TTITLE1=Independet, Strong, and Free
TTITLE2=Changing Seasons
TTITLE3=Everything That Glitters
TTITLE4=Ballad of Sherriff Warrick
TTITLE5=Wayfaring Stranger
TTITLE6=The Mad Cow Bar
TTITLE7=Home To Wichita
TTITLE8=Amigos, You and I
TTITLE9=Rocky Mountain High
TTITLE10=My Adobe Doublewide
TTITLE11=My Country Cowgirl
TTITLE12=Colorado, You're Where I Belong
TTITLE13=The Bevo Song
EXTD=
EXTT0=
EXTT1=
EXTT2=
EXTT3=
EXTT4=
EXTT5=
EXTT6=
EXTT7=
EXTT8=
EXTT9=
EXTT10=
EXTT11=
EXTT12=
EXTT13=
PLAYORDER=
